inDegrees=no
num_controls=7
num_derivatives=13
num_iterations=45
num_multipliers=7
num_parameters=0
num_slacks=7
num_states=26
objective=0.426612
objective_accelerations=0.058706
objective_balance=0.001173
objective_effort=0.015356
objective_height=0.345430
objective_ligament=0.005946
solver_duration=663.829913
status=Solve_Succeeded
success=true
DataType=double
version=3
OpenSimVersion=4.5
endheader
time	/jointset/ground_pelvis/pelvis_tilt/value	/jointset/ground_pelvis/pelvis_tx/value	/jointset/ground_pelvis/pelvis_ty/value	/jointset/hip_l/hip_flexion_l/value	/jointset/hip_l/hip_adduction_l/value	/jointset/hip_l/hip_rotation_l/value	/jointset/back/lumbar_extension/value	/jointset/patellofemoral_l/patellar_flexion_l/value	/jointset/knee_l/knee_flexion_l/value	/jointset/knee_l/knee_adduction_l/value	/jointset/knee_l/knee_rotation_l/value	/jointset/ankle_l/ankle_angle_l/value	/jointset/subtalar_l/subtalar_angle_l/value	/jointset/ground_pelvis/pelvis_tilt/speed	/jointset/ground_pelvis/pelvis_tx/speed	/jointset/ground_pelvis/pelvis_ty/speed	/jointset/hip_l/hip_flexion_l/speed	/jointset/hip_l/hip_adduction_l/speed	/jointset/hip_l/hip_rotation_l/speed	/jointset/back/lumbar_extension/speed	/jointset/patellofemoral_l/patellar_flexion_l/speed	/jointset/knee_l/knee_flexion_l/speed	/jointset/knee_l/knee_adduction_l/speed	/jointset/knee_l/knee_rotation_l/speed	/jointset/ankle_l/ankle_angle_l/speed	/jointset/subtalar_l/subtalar_angle_l/speed	/forceset/tau_hip_flexion_l	/forceset/tau_hip_adduction_l	/forceset/tau_hip_rotation_l	/forceset/tau_knee_flexion_l	/forceset/tau_ankle_angle_l	/forceset/tau_subtalar_angle_l	/forceset/tau_lumbar_extension	lambda_cid13_p0	lambda_cid13_p1	lambda_cid13_p2	lambda_cid13_p3	lambda_cid13_p4	lambda_cid13_p5	lambda_cid14_p0	/jointset/ground_pelvis/pelvis_tilt/accel	/jointset/ground_pelvis/pelvis_tx/accel	/jointset/ground_pelvis/pelvis_ty/accel	/jointset/hip_l/hip_flexion_l/accel	/jointset/hip_l/hip_adduction_l/accel	/jointset/hip_l/hip_rotation_l/accel	/jointset/back/lumbar_extension/accel	/jointset/patellofemoral_l/patellar_flexion_l/accel	/jointset/knee_l/knee_flexion_l/accel	/jointset/knee_l/knee_adduction_l/accel	/jointset/knee_l/knee_rotation_l/accel	/jointset/ankle_l/ankle_angle_l/accel	/jointset/subtalar_l/subtalar_angle_l/accel	gamma_cid13_p0	gamma_cid13_p1	gamma_cid13_p2	gamma_cid13_p3	gamma_cid13_p4	gamma_cid13_p5	gamma_cid14_p0
1	-0.4517982814310842	-0.002315310990946438	0.5929780658956415	1.703767601592365	-0.3463274689989897	0.1320133221078153	-0.4363084451859751	1.511891716979739	1.51189171697979	0.065921961933483	-0.174500662774674	0.4351769505458718	0.2498858089799721	-0.1435139440861985	0.001057723749279688	0.02894378864880826	0.03781414500553248	0.0005697927176345499	-0.05571107494164818	-2.084612363416391e-05	-0.1394931101654549	-0.1394931101654717	0.001111225709182746	-7.882024400069641e-05	-0.04561052515137862	-0.02654273254172117	-0.2381476009464549	0.08266648045613395	-0.01390214290637759	-0.2921929850700595	-0.01753571163510825	-0.0143134601334741	0.2078937375869445	-41.55590420230908	24.06527984139134	-16.19436186685608	4.591180260350932	-542.4478035041567	-30.45268687018818	-0.02375739967071868	1.444946458837401	0.2306650257746458	2.006024100831143	-6.598550055856252	-0.2217535072387474	-1.522111150181269	-0.0286792738802002	-5.5715501674651	-5.571550167465063	-0.8938753689412862	-0.03131553402784878	-0.9016423639439182	-0.8972655805865808	-1.439083111096656e-09	-1.173218187662548e-07	-6.623022015847699e-08	-7.036774997646372e-09	-6.172607309301537e-09	-1.624296121689294e-07	7.852387546980116e-09
1.01	-0.4531618175397341	-0.002293182002235255	0.5933676273780556	1.703816739810802	-0.3463323194749264	0.1313823305896097	-0.4363092188317156	1.510218528881406	1.510218528881463	0.06588697152779273	-0.1745015836241966	0.4346757479477119	0.2495764013677216	-0.1291779311378431	0.003375947981089092	0.04896314253406288	-0.0279920522137141	-0.001535198996544506	-0.07047999802964207	-0.0001377687765498905	-0.1951464050656205	-0.1951464050656353	-0.008107955671463217	-0.0001049388965361682	-0.05463973631672694	-0.03533138304573807	-0.2385748705794907	0.0826349180474396	-0.01393581436721612	-0.2913122966773512	-0.01784903541887034	-0.01424923471690226	0.2081221936653188	-41.61363466975095	23.99671279807863	-16.12542514320427	4.479689269615346	-542.3215131035266	-30.39513608456611	-0.02377335861749414	1.430231417718991	0.2335791041997535	1.999084161122745	-6.572486537166645	-0.2041528532344217	-1.453201906080818	-0.003781623215570916	-5.562505566640544	-5.562505566640281	-0.9357464342207797	0.01177208558496074	-0.905029027733536	-0.8685170839605104	-1.081567314738872e-09	-1.58420791436447e-07	-9.59339976665361e-08	-1.549448949834336e-08	-1.033926308403828e-08	-2.157175922844305e-07	1.037781566639548e-08
1.02	-0.4543815329779255	-0.002247635174742818	0.5939572210250719	1.703207649660602	-0.3463580760379502	0.1306038660369283	-0.4363112782764285	1.507988750551002	1.507988750551068	0.06575982792598165	-0.1745027592369574	0.4340839595309179	0.2491793367907008	-0.1147498099941113	0.005741291505530225	0.06895022156932692	-0.09383152872126986	-0.003611424699801651	-0.08520568183653203	-0.0002780059181914303	-0.2508111565797177	-0.2508111565797311	-0.01731941351589005	-0.0001297728910181095	-0.0637276888782054	-0.04407412549580642	-0.2390021402125398	0.0826033556387447	-0.01396948582803692	-0.2904316082846422	-0.01816235920263074	-0.01418500930033064	0.2083506497436783	-41.67361647105796	23.92515656137043	-16.05214692742856	4.361152136828795	-542.3043573364315	-30.34427888606058	-0.02379175706949911	1.463368097912616	0.2400888843010202	1.99956913083303	-6.605205913518091	-0.2160003050543976	-1.51346329396052	-0.03334217162515082	-5.573841490251444	-5.573841490251505	-0.8923306616974622	-0.03105860241720099	-0.9133906431699002	-0.8880839697968907	-1.229061660840882e-09	-1.996619478879451e-07	-1.25877686162643e-07	-2.335424310985795e-08	-1.398953543100073e-08	-2.680713762230704e-07	1.264588221788824e-08
1.03	-0.4554564845280334	-0.00217815986470263	0.5947464567623215	1.701940106175173	-0.3464044120258865	0.1296783450342869	-0.43631471758447	1.505202320595401	1.505202320595434	0.06554070654148143	-0.1745041460369749	0.4334009362639692	0.2486951230502205	-0.1002224869040792	0.008165636195165157	0.08888495935515761	-0.1596729288121104	-0.005647565917913838	-0.09989278074743357	-0.0004004694623612227	-0.3064717597690363	-0.3064717597690507	-0.02649468062023001	-0.0001451788810447717	-0.07289274357669755	-0.05275678312292975	-0.239302935911771	0.08261263012570064	-0.01397217317573742	-0.2893244464072791	-0.01847762025441166	-0.01410974094478326	0.2085214618801158	-41.71379193744228	23.83507546284122	-15.9641951409382	4.21995842768976	-542.05780066965	-30.27086977423695	-0.02381668998058101	1.450116626568444	0.2453808261011012	1.988627574651368	-6.572970974769866	-0.1961637675723083	-1.445477804943634	-0.0002905110386136344	-5.561711513552956	-5.561711513553067	-0.928612283618079	0.01353291793895572	-0.9204408031569744	-0.8565236237428763	-1.381709171661872e-09	-2.409045551943544e-07	-1.558238227300564e-07	-3.120789507964618e-08	-1.763453855931243e-08	-3.204156275476607e-07	1.49113226309328e-08
1.04	-0.456385622404836	-0.002084086394804845	0.5957346801718681	1.700014275905254	-0.3464708579734803	0.1286061241194782	-0.436319099940999	1.50185937625185	1.501859376251852	0.06523013497618114	-0.1745056239938466	0.4326257868660422	0.2481244493405544	-0.08558707533325136	0.01066092347704941	0.1087477560287296	-0.2254888856190644	-0.007633416631334356	-0.1145456642698824	-0.0004666156155555439	-0.3621140341695903	-0.3621140341696053	-0.03560944967720227	-0.0001480042616979312	-0.0821529150739131	-0.06136611933296616	-0.2396037316110193	0.08262190461265582	-0.01397486052341462	-0.2882172845299135	-0.01879288130618918	-0.01403447258923552	0.2086922740165354	-41.75645674898215	23.74206178488338	-15.87192795427865	4.071955773461821	-541.9218991434349	-30.20512875443917	-0.02384417568387528	1.484985794071714	0.2542774027509138	1.985180908381301	-6.600117256740783	-0.2059422041160991	-1.506620216270007	-0.02207869342984363	-5.570175732498521	-5.570175732498545	-0.8802310522239272	-0.0285424805425637	-0.9324140029145359	-0.873419686379531	-1.552895892688203e-09	-2.781017817993483e-07	-1.798519095281317e-07	-3.775742007041247e-08	-2.22555608528541e-08	-3.643121545949454e-07	1.654236464533928e-08
1.05	-0.4571678796248302	-0.001964695403882496	0.596921121664639	1.697430533536971	-0.3465568636931726	0.1273875573737749	-0.4363238692862592	1.497960061493925	1.497960061493956	0.06482875770821393	-0.1745070243035879	0.4317574177609995	0.2474680595296818	-0.07084779902190563	0.01323012489008382	0.1285237102673641	-0.2912441474178574	-0.009554725546077902	-0.1291548182016303	-0.0004787233637250276	-0.4177501537516517	-0.4177501537516582	-0.04465833702752377	-0.0001245833506959965	-0.09155080825702711	-0.06989865365918851	-0.239689639346116	0.08269833937204937	-0.01394303615087604	-0.2869655892351898	-0.01904288653019297	-0.01396242107821835	0.2087260580035543	-41.76148937552379	23.63973485219531	-15.77346886431972	3.917236715324412	-541.5524044496426	-30.11018736505399	-0.02388008887946752	1.470883904053596	0.260160119072441	1.971272414497308	-6.560914814999774	-0.1832401435585263	-1.436140613079259	0.01050269617215966	-5.560519168485279	-5.560519168484091	-0.9160881879833116	0.01884478222993361	-0.9479768131465296	-0.8411171898014063	-1.724661964033452e-09	-3.15172590257423e-07	-2.036950572709151e-07	-4.426619109308433e-08	-2.69070837453092e-08	-4.079446902585644e-07	1.815358170978832e-08
1.06	-0.4578022470108301	-0.001819228677131332	0.5983048166463748	1.694189701715991	-0.346661685483693	0.1260232835624661	-0.4363285038066795	1.493504347720694	1.493504347720755	0.06433711744441743	-0.1745079783231542	0.4307941697566975	0.2467267549987352	-0.05600910853506025	0.01587607064281258	0.1481984538217272	-0.3569067761587018	-0.01139663079702601	-0.1436870773914604	-0.0004396506445863528	-0.4733938372307245	-0.4733938372307257	-0.05366204883972591	-5.87462273601386e-05	-0.1011286949256075	-0.07834906334772324	-0.2397755470812138	0.08277477413145003	-0.01391121177839021	-0.2857138939404649	-0.01929289175419284	-0.01389036956718607	0.2087598419905736	-41.76932751998374	23.53452746700546	-15.67069898524442	3.756260349914185	-541.2958712540119	-30.0240360061286	-0.02391875063793275	1.504868629171603	0.2696262706898116	1.964938771527038	-6.581590645151081	-0.1900614713570428	-1.491241267886469	-0.01184259996801885	-5.571688511900808	-5.571688511901473	-0.8711959446000599	-0.02005923807583664	-0.9684127000077739	-0.8569947588420319	-2.131391250115304e-09	-3.519821313152955e-07	-2.243618014089071e-07	-5.172291994462457e-08	-2.996264223369928e-08	-4.40373739249924e-07	1.792486743317035e-08
1.07	-0.4582878981149466	-0.00164680454471512	0.5998846002426866	1.690293089459451	-0.3467845495707816	0.1245140720075725	-0.4363315280851013	1.488492477989163	1.488492477989219	0.06375578978802054	-0.174508110713378	0.4297343907544278	0.2459014374724598	-0.04112217636565012	0.01863299200473114	0.1677261946124216	-0.4223618376163181	-0.01316628795785682	-0.1581359957006362	-5.932022762216949e-05	-0.5289497901415147	-0.5289497901415204	-0.06259223751054534	3.276703178662434e-05	-0.110842329729161	-0.08669503453463648	-0.2400071783992573	0.08284373540005578	-0.01386048048070488	-0.2839728773885855	-0.0197450264570083	-0.01378572190497168	0.2089936392569261	-41.81434048971585	23.39653931218101	-15.53399496210951	3.528025111750722	-540.8203169473996	-29.90820214928353	-0.02395979053733227	1.480445100204298	0.2823485414693345	1.941874479945731	-6.519389237195483	-0.1688896550725911	-1.418843415238941	0.07885358483436659	-5.543004355626246	-5.543004355626555	-0.9022719031238089	0.02375857014382881	-0.975140623313554	-0.820395722183796	-2.550618579534212e-09	-3.887777751710296e-07	-2.448595879083463e-07	-5.92300720849344e-08	-3.293330899846886e-08	-4.722068580991421e-07	1.759828446819774e-08
